<svg xmlns="http://www.w3.org/2000/svg" version="1.1" xmlns:xlink="http://www.w3.org/1999/xlink" xmlns:svgjs="http://svgjs.dev/svgjs" width="1000" height="623" viewBox="0 0 1000 623"><g transform="matrix(1,0,0,1,-0.6060606060606233,124.06959199280243)"><svg viewBox="0 0 396 247" data-background-color="#ffffff" preserveAspectRatio="xMidYMid meet" height="623" width="1000" xmlns="http://www.w3.org/2000/svg" xmlns:xlink="http://www.w3.org/1999/xlink"><g id="tight-bounds" transform="matrix(1,0,0,1,0.2400000000000091,-0.09999999999999432)"><svg viewBox="0 0 395.52 247.2" height="247.2" width="395.52"><g><svg></svg></g><g><svg viewBox="0 0 395.52 247.2" height="247.2" width="395.52"><g transform="matrix(1,0,0,1,75.54432000000001,68.18543701863354)"><svg viewBox="0 0 244.43135999999996 110.8291259627329" height="110.8291259627329" width="244.43135999999996"><g><svg viewBox="0 0 244.43135999999996 110.8291259627329" height="110.8291259627329" width="244.43135999999996"><g><svg viewBox="0 0 244.43135999999996 110.8291259627329" height="110.8291259627329" width="244.43135999999996"><g><svg viewBox="0 0 244.43135999999996 110.8291259627329" height="110.8291259627329" width="244.43135999999996"><g><svg viewBox="0 0 244.43135999999996 110.8291259627329" height="110.8291259627329" width="244.43135999999996"><g><svg viewBox="0 0 244.43135999999996 110.8291259627329" height="110.8291259627329" width="244.43135999999996"><g transform="matrix(1,0,0,1,0,0)"><svg width="244.43135999999996" viewBox="2.25 -35.75 80.5 36.5" height="110.8291259627329" data-palette-color="#ba3b0a"><path d="M16.25 0.75Q12.45 0.75 9.25-1.4 6.05-3.55 4.15-7.68 2.25-11.8 2.25-17.5L2.25-17.5Q2.25-23.25 4.23-27.38 6.2-31.5 9.78-33.63 13.35-35.75 18.05-35.75L18.05-35.75Q20.9-35.75 23.8-34.1L23.8-34.1Q24.9-33.5 26-32.5L26-32.5Q26.85-33.8 27.75-34.55L27.75-34.55Q28.65-35.2 28.75-35.25L28.75-35.25 30-35.25 30-25.75 28-25.75Q27.35-28.15 26.05-30.1L26.05-30.1Q24.85-32 23.08-33.25 21.3-34.5 19-34.5L19-34.5Q15.55-34.5 13.28-30.5 11-26.5 11-17.5L11-17.5Q11-8.5 13.03-4.75 15.05-1 18.25-1L18.25-1Q20.1-1 21.6-3L21.6-3Q22.15-3.75 22.75-5L22.75-5 22.75-16.5 19.75-17.25 19.75-18 34-18 34-17.25 31-16.5 31 0.25 30.25 0.25Q26.6 0.25 24.7-1.75L24.7-1.75Q23.85-2.65 23.5-3.75L23.5-3.75Q22.8-2.5 21.85-1.5L21.85-1.5Q19.6 0.75 16.25 0.75L16.25 0.75ZM41 0.5Q39.5 0.5 38.37-0.63 37.25-1.75 37.25-3.25L37.25-3.25Q37.25-4.75 38.37-5.88 39.5-7 41-7L41-7Q42.5-7 43.62-5.88 44.75-4.75 44.75-3.25L44.75-3.25Q44.75-1.75 43.62-0.63 42.5 0.5 41 0.5L41 0.5ZM63.75 0L49.5 0 49.5-0.75 52.5-1.5 52.5-33.5 49.5-34.25 49.5-35 63.75-35 63.75-34.25 60.75-33.5 60.75-18 71.5-18 71.5-33.5 68.5-34.25 68.5-35 82.75-35 82.75-34.25 79.75-33.5 79.75-1.5 82.75-0.75 82.75 0 68.5 0 68.5-0.75 71.5-1.5 71.5-16.75 60.75-16.75 60.75-1.5 63.75-0.75 63.75 0Z" opacity="1" transform="matrix(1,0,0,1,0,0)" fill="#ba3b0a" class="undefined-text-0" data-fill-palette-color="primary" id="text-0"></path></svg></g></svg></g></svg></g></svg></g><g></g></svg></g></svg></g></svg></g><g><path d="M106.757 42.021A122.216 122.216 0 0 1 288.763 42.021L278.769 42.021A112.221 112.221 0 0 0 116.751 42.021L106.757 42.021M106.757 205.179A122.216 122.216 0 0 0 288.763 205.179L278.769 205.179A112.221 112.221 0 0 1 116.751 205.179L106.757 205.179" fill="#ba3b0a" stroke="transparent" data-fill-palette-color="tertiary"></path></g></svg></g><defs></defs></svg><rect width="395.52" height="247.2" fill="none" stroke="none" visibility="hidden"></rect></g></svg></g></svg>